<?xml version="1.0" encoding="utf-8"?>
<!-- Generator: Adobe Illustrator 16.0.0, SVG Export Plug-In . SVG Version: 6.00 Build 0)  -->
<!DOCTYPE svg PUBLIC "-//W3C//DTD SVG 1.1//EN" "http://www.w3.org/Graphics/SVG/1.1/DTD/svg11.dtd">
<svg version="1.1" id="Capa_1" xmlns="http://www.w3.org/2000/svg" xmlns:xlink="http://www.w3.org/1999/xlink" x="0px" y="0px"
	 width="566.93px" height="566.93px" viewBox="0 0 566.93 566.93" enable-background="new 0 0 566.93 566.93" xml:space="preserve">
<g>
	<g>
		<path fill="#F0A85E" d="M33.084,179.543v170.07c0,5.219,4.23,9.449,9.448,9.449h37.794c2.209,0.001,4.349-0.771,6.047-2.184
			l54.063-45.059h34.373v37.793c0,5.219,4.23,9.449,9.448,9.449h94.484v18.896h-9.449c-5.217,0-9.447,4.23-9.447,9.448
			s4.23,9.448,9.447,9.448h4.356l-69.682,156.786c-2.119,4.77,0.03,10.354,4.8,12.472c4.769,2.119,10.353-0.03,12.472-4.799
			l73.093-164.459h12.755v160.622c0,5.218,4.231,9.449,9.448,9.449c5.219,0,9.449-4.231,9.449-9.449V396.855h12.755l73.093,164.459
			c2.119,4.769,7.703,6.918,12.472,4.799c4.769-2.118,6.919-7.702,4.8-12.472l-69.682-156.786h4.355c5.218,0,9.448-4.23,9.448-9.448
			s-4.23-9.448-9.448-9.448h-9.448v-18.896h94.483c5.219,0,9.449-4.23,9.449-9.449v-56.689h27.191l36.65,9.164
			c0.752,0.189,1.522,0.284,2.297,0.284c5.217,0,9.447-4.231,9.447-9.448v-56.69c0-0.775-0.096-1.545-0.283-2.296
			c-1.268-5.062-6.398-8.138-11.461-6.869l-36.65,9.165h-27.191v-56.69c-0.02-2.75-1.258-5.349-3.382-7.096
			c13.704-9.355,24.702-22.156,31.886-37.116c22.57-47.008,2.76-103.411-44.248-125.982C395.51-13.222,339.106,6.588,316.535,53.596
			c-7.188-14.985-18.203-27.807-31.934-37.171C241.517-12.959,182.771-1.853,153.386,41.232s-18.278,101.831,24.807,131.215
			c-2.123,1.747-3.362,4.346-3.383,7.096v37.793h-34.373l-54.063-45.059c-1.698-1.413-3.838-2.184-6.047-2.183H42.532
			C37.314,170.095,33.084,174.325,33.084,179.543z M496.055,253.061l18.896-4.724v32.484l-18.896-4.725V253.061z M458.262,255.13
			h18.896v18.897h-18.896V255.13z M316.535,135.419c6.619,13.679,16.424,25.571,28.592,34.676h-57.182
			C300.111,160.99,309.917,149.099,316.535,135.419z M401.57,170.095c-41.744,0-75.586-33.842-75.586-75.587
			c0-41.746,33.842-75.587,75.586-75.587c41.746,0,75.588,33.842,75.588,75.587C477.111,136.234,443.297,170.048,401.57,170.095z
			 M297.639,359.062h37.793v18.896h-37.793V359.062z M193.707,188.991h245.657v151.175H193.707V188.991z M155.913,94.508
			c0-41.746,33.842-75.587,75.587-75.587c41.727,0.047,75.54,33.861,75.587,75.587c0,41.745-33.841,75.587-75.587,75.587
			C189.755,170.095,155.913,136.254,155.913,94.508z M146.465,236.233h28.345v56.69h-28.345V236.233z M51.981,188.991h24.925
			l50.662,42.225v66.724l-50.662,42.226H51.981V188.991z"/>
	</g>
</g>
<g>
	<g>
		<path fill="#F0A85E" d="M363.777,94.508c0,20.873,16.921,37.793,37.793,37.793c20.873,0,37.794-16.921,37.794-37.793
			c0-20.873-16.921-37.794-37.794-37.794C380.698,56.714,363.777,73.635,363.777,94.508z M382.674,94.508
			c0-10.437,8.46-18.897,18.896-18.897c10.438,0,18.897,8.46,18.897,18.897c0,10.437-8.46,18.896-18.897,18.896
			C391.135,113.404,382.674,104.944,382.674,94.508z"/>
	</g>
</g>
<g>
	<g>
		<path fill="#F0A85E" d="M193.707,94.508c0,20.873,16.921,37.793,37.793,37.793c20.873,0,37.793-16.921,37.793-37.793
			c0-20.873-16.92-37.794-37.793-37.794C210.628,56.714,193.707,73.635,193.707,94.508z M212.604,94.508
			c0-10.437,8.46-18.897,18.896-18.897c10.438,0,18.896,8.46,18.896,18.897c0,10.437-8.459,18.896-18.896,18.896
			C221.064,113.404,212.604,104.944,212.604,94.508z"/>
	</g>
</g>
<g>
	<g>
		<path fill="#F0A85E" d="M212.604,217.336v94.484c0,5.218,4.23,9.448,9.448,9.448H411.02c5.218,0,9.448-4.23,9.448-9.448v-94.484
			c0-5.218-4.23-9.448-9.448-9.448H222.052C216.834,207.888,212.604,212.119,212.604,217.336z M231.5,226.785h170.07v75.587H231.5
			V226.785z"/>
	</g>
</g>
<g>
	<g>
		<rect x="325.984" y="255.13" fill="#F0A85E" width="18.896" height="18.897"/>
	</g>
</g>
<g>
	<g>
		<rect x="288.19" y="255.13" fill="#F0A85E" width="18.896" height="18.897"/>
	</g>
</g>
<g>
	<g>
		<rect x="250.396" y="255.13" fill="#F0A85E" width="18.896" height="18.897"/>
	</g>
</g>
<g>
	<g>
		<rect x="363.777" y="255.13" fill="#F0A85E" width="18.896" height="18.897"/>
	</g>
</g>
</svg>
